<?xml version="1.0" standalone="no"?>
<!DOCTYPE svg PUBLIC "-//W3C//DTD SVG 20010904//EN"
 "http://www.w3.org/TR/2001/REC-SVG-20010904/DTD/svg10.dtd">
<svg version="1.0" xmlns="http://www.w3.org/2000/svg"
 width="211.000000pt" height="52.000000pt" viewBox="0 0 211.000000 52.000000"
 preserveAspectRatio="xMidYMid meet">

<g transform="translate(0.000000,52.000000) scale(0.100000,-0.100000)"
fill="#000000" stroke="none">
<path d="M78 341 c-29 -26 -33 -35 -33 -81 0 -46 4 -55 33 -81 32 -29 33 -29
162 -29 129 0 130 0 162 29 29 26 33 35 33 81 0 46 -4 55 -33 81 -32 29 -33
29 -162 29 -129 0 -130 0 -162 -29z m297 -36 c30 -30 31 -54 4 -89 -20 -25
-23 -26 -139 -26 -116 0 -119 1 -139 26 -27 35 -26 59 4 89 23 24 31 25 135
25 104 0 112 -1 135 -25z"/>
<path d="M512 362 c-27 -18 -45 -167 -23 -201 17 -27 41 -4 41 39 l0 40 63 0
c84 0 131 -15 176 -56 21 -19 43 -34 49 -34 24 0 22 24 -4 52 -50 52 -100 71
-197 76 -83 4 -88 6 -85 26 3 20 9 21 123 24 l120 3 22 -28 c17 -20 25 -25 34
-16 13 13 4 46 -17 68 -12 12 -44 15 -152 15 -75 0 -143 -4 -150 -8z"/>
<path d="M927 350 c-36 -29 -52 -81 -37 -125 22 -66 45 -75 200 -75 109 0 139
3 143 14 3 8 3 17 0 20 -4 3 -66 6 -138 6 -150 0 -165 7 -165 73 0 58 22 67
171 67 69 0 128 3 132 6 3 3 3 12 0 20 -4 11 -34 14 -143 14 -123 0 -140 -2
-163 -20z"/>
<path d="M1728 356 c-10 -7 -18 -16 -18 -20 0 -8 335 -8 343 0 3 3 3 12 0 20
-7 20 -300 20 -325 0z"/>
<path d="M1710 270 c0 -22 47 -30 189 -30 147 0 175 6 132 30 -25 13 -321 14
-321 0z"/>
<path d="M1705 180 c-15 -25 13 -30 159 -30 140 0 154 2 171 20 18 20 17 20
-153 20 -103 0 -173 -4 -177 -10z"/>
</g>
</svg>
